HIERARCHY
ROOT Hips
{
	OFFSET 0.000000 0.000000 0.000000
	CHANNELS 6 Xposition Yposition Zposition Zrotation Yrotation Xrotation 
	JOINT LHipJoint
	{
		OFFSET 0.000000 0.000000 0.000000
		CHANNELS 3 Zrotation Yrotation Xrotation
		JOINT LeftUpLeg
		{
			OFFSET 1.363060 -1.794630 0.839290
			CHANNELS 3 Zrotation Yrotation Xrotation
			JOINT LeftLeg
			{
				OFFSET 2.448110 -6.726130 0.000000
				CHANNELS 3 Zrotation Yrotation Xrotation
				JOINT LeftFoot
				{
					OFFSET 2.562200 -7.039590 0.000000
					CHANNELS 3 Zrotation Yrotation Xrotation
					JOINT LeftToeBase
					{
						OFFSET 0.157640 -0.433110 2.322550
						CHANNELS 3 Zrotation Yrotation Xrotation
						End Site
						{
							OFFSET 0.000000 0.000000 0.000000
						}
					}
				}
			}
		}
	}
	JOINT RHipJoint
	{
		OFFSET 0.000000 0.000000 0.000000
		CHANNELS 3 Zrotation Yrotation Xrotation
		JOINT RightUpLeg
		{
			OFFSET -1.305520 -1.794630 0.839290
			CHANNELS 3 Zrotation Yrotation Xrotation
			JOINT RightLeg
			{
				OFFSET -2.542530 -6.985550 0.000000
				CHANNELS 3 Zrotation Yrotation Xrotation
				JOINT RightFoot
				{
					OFFSET -2.568260 -7.056230 0.000000
					CHANNELS 3 Zrotation Yrotation Xrotation
					JOINT RightToeBase
					{
						OFFSET -0.164730 -0.452590 2.363150
						CHANNELS 3 Zrotation Yrotation Xrotation
						End Site
						{
							OFFSET 0.000000 0.000000 0.000000
						}
					}
				}
			}
		}
	}
}
MOTION
Frames: 34
Frame Time: 0.008333
1.240193 16.613112 0.730006 19.578291 69.448985 42.297982 -11.395998 3.515580 -3.929614 -5.169722 14.298349 -11.678173 -1.154907 2.317223 35.438664 0.785855 -4.597364 23.061002 -2.617300 0.000000 -76.772800 8.759348 0.938196 0.232184 14.420431 3.409142 -48.244963 2.227338 -1.450370 29.626593 -2.638421 -7.557456 -14.193379 -179.672400 0.000001 -6.206900
1.403125 16.581202 0.825268 18.298135 69.190562 40.665667 -11.467276 3.418003 -4.009919 -4.291299 14.443045 -12.045268 -1.010457 2.446749 37.730667 0.879762 -4.222965 23.346002 -2.515300 0.000000 -72.690300 8.721238 0.878167 -0.047128 15.084154 3.346202 -47.906067 2.218012 -1.701498 32.018156 -2.588202 -7.082812 -15.486189 -179.419900 0.000000 -8.411500
1.561588 16.557136 0.922236 16.964966 68.938331 39.016096 -11.522672 3.291094 -4.089259 -3.444469 14.449552 -12.537441 -0.859720 2.581926 40.082164 0.993149 -3.273576 23.402260 -2.125600 0.000000 -68.389100 8.669265 0.814129 -0.309176 15.782485 3.317835 -47.310688 2.236887 -1.872844 33.866827 -2.571537 -6.684558 -16.913777 -179.162500 -0.000001 -10.274801
1.716021 16.540877 1.021513 15.649123 68.676171 37.422193 -11.558560 3.141507 -4.160914 -2.673876 14.311425 -13.149121 -0.704841 2.720469 42.447314 1.128562 -1.751082 23.220315 -1.451500 -0.000000 -64.056300 8.609297 0.748231 -0.549641 16.481653 3.314872 -46.486844 2.279024 -1.973730 35.190394 -2.587048 -6.372635 -18.395298 -178.908201 0.000000 -11.772400
1.867070 16.532272 1.123713 14.421837 68.389652 35.957955 -11.572826 2.976205 -4.217663 -2.019341 14.027300 -13.873655 -0.548349 2.858218 44.777570 1.289300 0.290988 22.803271 -0.530600 0.000000 -59.864000 8.548077 0.683076 -0.763386 17.144120 3.329590 -45.469475 2.336750 -2.013409 36.017876 -2.628738 -6.148654 -19.834444 -178.665600 0.000000 -12.870201
2.015365 16.531142 1.229064 13.328095 68.068405 34.673340 -11.566180 2.800719 -4.254730 -1.502637 13.605768 -14.706921 -0.393780 2.990992 47.029211 1.477122 2.747193 22.158073 0.567700 -0.000000 -55.889500 8.490040 0.620612 -0.945733 17.742495 3.362943 -44.295549 2.401880 -1.999979 36.382351 -2.687942 -6.009835 -21.133225 -178.444000 0.000000 -13.551300
2.161682 16.537229 1.337729 12.395331 67.704638 33.603234 -11.540505 2.620216 -4.267383 -1.133611 13.059822 -15.645697 -0.244978 3.114299 49.160437 1.690756 5.477597 21.302297 1.755200 -0.000000 -52.181100 8.438570 0.561583 -1.091726 18.257633 3.418802 -43.006063 2.467049 -1.941210 36.325213 -2.754097 -5.945480 -22.208242 -178.253000 0.000000 -13.840500
2.306683 16.550282 1.449576 11.631446 67.294216 32.762036 -11.498081 2.438972 -4.251267 -0.909577 12.405428 -16.686422 -0.105461 3.223785 51.132838 1.924577 8.322046 20.264154 2.936800 -0.000000 -48.771600 8.395882 0.505357 -1.196930 18.680010 3.501408 -41.643090 2.527118 -1.844632 35.893409 -2.816300 -5.937349 -23.001331 -178.102000 0.000000 -13.813899
2.451034 16.570013 1.564353 11.017132 66.833580 32.140332 -11.442014 2.260051 -4.204571 -0.812820 11.664256 -17.826974 0.021416 3.316764 52.915320 2.168173 11.114433 19.075428 4.021000 -0.000000 -45.646000 8.361812 0.450622 -1.258870 19.014008 3.618331 -40.246596 2.579716 -1.716963 35.136727 -2.865496 -5.963804 -23.485144 -177.998200 0.000000 -13.590000
2.595214 16.596072 1.681638 10.523265 66.321255 31.715882 -11.374612 2.085652 -4.126148 -0.819589 10.857386 -19.061815 0.133346 3.390969 54.480616 2.407986 13.702433 17.775220 4.933100 0.000000 -42.814700 8.335801 0.395420 -1.276879 19.270128 3.772547 -38.852287 2.625181 -1.564616 34.107211 -2.894794 -5.999515 -23.663925 -177.945900 -0.000000 -13.305200
2.739566 16.628069 1.801043 10.114442 65.756483 31.456115 -11.297570 1.917218 -4.016196 -0.902243 10.006854 -20.381043 0.228841 3.444813 55.807188 2.629174 15.958711 16.401616 5.620300 0.000000 -40.267300 8.316965 0.337370 -1.252155 19.463709 3.962522 -37.487845 2.666032 -1.393308 32.855444 -2.899816 -6.018608 -23.567554 -177.945599 -0.000000 -13.086600
2.884245 16.665556 1.922223 9.753460 65.138114 31.323500 -11.212005 1.755275 -3.877203 -1.031431 9.134187 -21.770271 0.306722 3.477740 56.878004 2.818036 17.789639 14.990423 6.055900 -0.000000 -38.004900 8.304212 0.274957 -1.189072 19.612788 4.182382 -36.171399 2.706080 -1.207716 31.427915 -2.878647 -5.997944 -23.243508 -177.993600 -0.000000 -13.028600
3.029252 16.707977 2.044867 9.407355 64.465308 31.279451 -11.118309 1.600013 -3.712785 -1.181193 8.258674 -23.208790 0.366193 3.489586 57.679966 2.963754 19.139372 13.571109 6.238400 -0.000000 -36.012900 8.297065 0.207043 -1.093950 19.734114 4.420843 -34.909535 2.749640 -1.011551 29.864448 -2.830895 -5.917737 -22.746777 -178.082600 0.000000 -13.182900
3.174500 16.754736 2.168799 9.051826 63.737280 31.289899 -11.016282 1.451191 -3.527759 -1.329736 7.396451 -24.671554 0.406519 3.480637 58.202857 3.059766 19.991853 12.170312 6.190199 -0.000000 -34.293900 8.295776 0.133635 -0.974849 19.841094 4.664153 -33.698655 2.800323 -0.807496 28.197168 -2.757370 -5.764439 -22.130167 -178.203700 0.000001 -13.556700
3.319678 16.805173 2.293947 8.675678 62.952909 31.327772 -10.905169 1.308989 -3.327459 -1.463554 6.560340 -26.128607 0.427138 3.451437 58.440936 3.103888 20.367347 10.803562 5.949801 0.000000 -32.779000 8.302262 0.055586 -0.840903 19.940048 4.894169 -32.525917 2.860324 -0.597936 26.452914 -2.658663 -5.527977 -21.436247 -178.348000 0.000000 -14.116500
3.464466 16.858543 2.420311 8.276490 62.110598 31.373918 -10.783893 1.173287 -3.117572 -1.575915 5.758965 -27.549680 0.427710 3.402624 58.391533 3.099185 20.323160 9.489934 5.570500 -0.000000 -31.448699 8.319398 -0.025174 -0.701289 20.031436 5.094740 -31.374434 2.929873 -0.384902 24.651830 -2.535322 -5.204212 -20.690741 -178.508000 -0.000001 -14.794800
3.608589 16.914092 2.547930 7.861809 61.208262 31.417426 -10.651179 1.044153 -2.903395 -1.667943 4.997884 -28.906153 0.408333 3.334851 58.056744 3.053180 19.944992 8.242673 5.109500 -0.000000 -30.246500 8.351533 -0.106185 -0.564449 20.107502 5.250511 -30.226047 3.006937 -0.171099 22.813284 -2.387187 -4.792246 -19.901216 -178.678900 -0.000000 -15.497400
3.751697 16.971013 2.676858 7.446507 60.243076 31.454578 -10.505683 0.921766 -2.689714 -1.747607 4.279847 -30.172677 0.369818 3.248730 57.443680 2.977299 19.339413 7.074063 4.621400 0.000000 -29.127700 8.403991 -0.184845 -0.437650 20.154722 5.348754 -29.066350 3.087668 0.039568 20.958337 -2.213223 -4.292104 -19.058027 -178.858200 -0.000000 -16.113600
3.893623 17.028554 2.807015 7.044635 59.212173 31.484198 -10.346890 0.806242 -2.479919 -1.825171 3.606560 -31.332083 0.313805 3.145100 56.564849 2.885477 18.621328 5.994016 4.152000 0.000000 -28.064500 8.481284 -0.259112 -0.324768 20.156097 5.385968 -27.886410 3.166685 0.242456 19.108313 -2.013155 -3.709424 -18.138049 -179.044100 0.000000 -16.524200
4.034287 17.085993 2.938213 6.669531 58.112791 31.507359 -10.174546 0.697848 -2.276746 -1.913360 2.978456 -32.372624 0.242652 3.024919 55.436276 2.792099 17.899947 5.006930 3.733300 0.000000 -27.050901 8.587596 -0.327609 -0.228389 20.093212 5.362465 -26.685984 3.238361 0.431147 17.292114 -1.786745 -3.047974 -17.113358 -179.234400 -0.000000 -16.618400
4.173799 17.142642 3.070191 6.327840 56.944169 31.525081 -9.989067 0.596447 -2.081837 -2.021351 2.395103 -33.291365 0.159210 2.889408 54.077174 2.709858 17.264332 4.111083 3.382600 -0.000000 -26.098800 8.725071 -0.390095 -0.148454 19.951101 5.287205 -25.474130 3.297641 0.598736 15.540829 -1.535658 -2.314479 -15.957716 -179.424800 0.000000 -16.308400
4.312431 17.197975 3.202478 6.020024 55.707445 31.535880 -9.792430 0.502285 -1.895176 -2.153855 1.856151 -34.091258 0.066198 2.740178 52.507769 2.647781 16.772027 3.297002 3.103200 0.000000 -25.224101 8.892491 -0.447489 -0.082071 19.720068 5.177883 -24.264463 3.340574 0.738863 13.886418 -1.264197 -1.518938 -14.654887 -179.607300 0.000000 -15.540399
4.450623 17.251481 3.334562 5.738696 54.408010 31.536759 -9.587533 0.415106 -1.715486 -2.308579 1.359789 -34.781358 -0.034066 2.578877 50.747730 2.610260 16.444322 2.550112 2.888100 0.000000 -24.451600 9.085325 -0.501518 -0.024595 19.398768 5.058607 -23.075049 3.365067 0.846854 12.357604 -0.979569 -0.675032 -13.204936 -179.771300 -0.000000 -14.319200
4.588753 17.302767 3.465949 5.477230 53.052911 31.525568 -9.378221 0.335377 -1.540439 -2.479941 0.902509 -35.370644 -0.140487 2.407180 48.813475 2.596567 16.266015 1.849595 2.722100 -0.000001 -23.759800 9.296655 -0.553770 0.028249 18.991297 4.952425 -21.923889 3.370643 0.919929 10.981637 -0.690387 0.204579 -11.625768 -179.904600 0.000000 -12.670600
4.727474 17.351513 3.596187 5.220536 51.656975 31.499252 -9.168781 0.261902 -1.366358 -2.652411 0.477834 -35.874478 -0.252246 2.226142 46.718836 2.601233 16.189945 1.182319 2.587900 -0.000000 -23.181700 9.516446 -0.606082 0.082096 18.513720 4.887252 -20.828274 3.358879 0.959228 9.772711 -0.407569 1.100274 -9.956750 -179.995700 -0.000000 -10.731200
4.867361 17.397378 3.724982 4.958184 50.237545 31.457648 -8.963845 0.194157 -1.188570 -2.809647 0.076022 -36.306050 -0.369371 2.036391 44.473981 2.614811 16.146810 0.539711 2.467900 0.000000 -22.725601 9.734108 -0.659415 0.140815 17.985445 4.883015 -19.801171 3.332569 0.968462 8.739549 -0.141160 1.994183 -8.254316 179.963400 0.000000 -8.675999
5.008799 17.440022 3.852207 4.683650 48.813152 31.403358 -8.767360 0.131786 -1.002654 -2.935290 -0.315606 -36.678032 -0.492756 1.838400 42.088085 2.625083 16.055485 -0.084182 2.345400 -0.000001 -22.343300 9.940298 -0.713836 0.205551 17.427606 4.950647 -18.850386 3.294804 0.952611 7.884096 0.101327 2.868680 -6.572495 179.974401 0.000001 -6.571800
5.152302 17.479088 3.977994 4.389970 47.408277 31.339077 -8.583310 0.073711 -0.802353 -3.009355 -0.713151 -37.004925 -0.622167 1.631691 39.568659 2.618718 15.837287 -0.670865 2.213301 0.000000 -22.100100 10.125626 -0.769396 0.278020 16.866085 5.096428 -17.978695 3.250056 0.919532 7.196829 0.313680 3.704394 -4.983914 -179.966900 0.000000 -4.694300
5.298076 17.514159 4.102563 4.077044 46.044012 31.270716 -8.413999 0.019529 -0.583672 -3.017307 -1.132253 -37.299871 -0.758056 1.416423 36.926777 2.583025 15.426014 -1.202401 2.068700 -0.000000 -21.963900 10.284832 -0.825228 0.355927 16.320900 5.314580 -17.183863 3.201511 0.875333 6.664632 0.494159 4.484097 -3.528850 -179.870600 -0.000000 -3.018400
5.446251 17.544780 4.226343 3.746747 44.741621 31.204027 -8.260942 -0.031439 -0.342960 -2.947272 -1.586665 -37.578255 -0.899761 1.192800 34.177175 2.508060 14.780144 -1.646768 1.916500 0.000001 -21.953900 10.414785 -0.880686 0.436754 15.809894 5.593378 -16.458567 3.152283 0.826090 6.267408 0.643097 5.192090 -2.239429 -179.749900 0.000000 -1.561000
5.596771 17.570499 4.349896 3.405010 43.521006 31.143457 -8.124897 -0.079682 -0.077792 -2.794052 -2.083781 -37.856797 -1.045837 0.961615 31.341847 2.388415 13.889104 -1.969866 1.765500 -0.000000 -22.072600 10.514896 -0.935648 0.518285 15.345712 5.915391 -15.791828 3.104917 0.776814 5.981786 0.762844 5.817533 -1.132856 -179.618600 -0.000000 -0.337300
5.749489 17.590884 4.473748 3.059215 42.397294 31.093534 -8.005181 -0.125888 0.210146 -2.561565 -2.620024 -38.154971 -1.194608 0.725010 28.452140 2.224605 12.775026 -2.145268 1.623600 0.000000 -22.303700 10.587429 -0.989650 0.596724 14.934623 6.259191 -15.170647 3.060872 0.730551 5.784436 0.857264 6.355773 -0.202703 0.512100 -0.000000 -0.720800
5.904018 17.605594 4.598362 2.718818 41.381427 31.056718 -7.900128 -0.170728 0.515655 -2.266755 -3.178928 -38.495524 -1.344298 0.486303 25.549866 2.023483 11.490074 -2.159689 1.495600 0.000000 -22.632400 10.636800 -1.042997 0.668958 14.576958 6.603682 -14.580676 3.020041 0.688090 5.651664 0.930914 6.806730 0.588085 0.635600 0.000000 -1.833700
6.060016 17.614427 4.724169 2.394544 40.480384 31.033693 -7.807687 -0.214624 0.830468 -1.940796 -3.730476 -38.902342 -1.493857 0.249548 22.685151 1.796897 10.105440 -2.019626 1.381500 -0.000001 -23.052300 10.668415 -1.096401 0.732799 14.267649 6.928350 -14.008333 2.981600 0.649032 5.563078 0.988305 7.177309 1.284780 0.750000 0.000000 -3.181099
